<svg width="140" height="30" viewBox="0 0 140 30" fill="none" xmlns="http://www.w3.org/2000/svg" class="w-[116px] sm:w-[140px] h-auto"><path d="M44.061 4.27197C45.1347 4.27197 45.9347 4.93564 45.9347 5.93115V6.11781C45.9347 7.12368 45.1347 7.77698 44.061 7.77698C42.9873 7.77698 42.1558 7.11331 42.1558 6.11781V5.93115C42.1558 4.92527 42.9873 4.27197 44.061 4.27197Z" fill="#EA207E"></path> <path d="M131.53 15.4919C131.53 11.8003 129.12 9.073 125.288 9.073C121.456 9.073 118.667 11.9247 118.667 15.7201V16.6948C118.667 20.4176 121.404 23.373 125.414 23.373C128.067 23.373 130.183 22.2116 131.52 19.754L129.13 18.437C128.162 20.0754 127.014 20.7909 125.383 20.7909C123.13 20.7909 121.604 19.4221 121.467 16.9126H131.52V15.4919H131.53ZM121.593 14.6727C121.941 12.6921 123.204 11.5618 125.288 11.5618C127.593 11.5618 128.562 13.1691 128.614 14.6727H121.593Z" fill="#EA207E"></path> <path d="M91.006 9.39446V11.0536C90.0376 9.86111 88.4586 9.073 86.585 9.073C82.9955 9.073 80.1323 11.8729 80.1323 15.7823V16.6845C80.1323 20.5939 82.9955 23.3938 86.585 23.3938C88.4586 23.3938 90.0376 22.6057 91.006 21.4131V23.0723H93.9534V9.39446H91.006ZM91.006 16.5497C91.006 19.1318 89.4797 20.8013 87.0692 20.8013C84.6586 20.8013 83.1323 19.1421 83.1323 16.5497V15.9171C83.1323 13.335 84.6586 11.6655 87.0692 11.6655C89.4797 11.6655 91.006 13.3246 91.006 15.9171V16.5497Z" fill="#EA207E"></path> <path d="M34.2088 9.08339C32.3352 9.08339 30.7564 9.87146 29.788 11.0639V4.59351H26.8408V16.5804C26.8408 20.8525 29.8722 23.393 33.7036 23.393C37.7454 23.393 40.6716 20.5725 40.6716 16.6841V15.813C40.6716 11.8831 37.8086 9.08339 34.2193 9.08339H34.2088ZM37.7244 16.6322C37.7244 19.1105 36.1666 20.8006 33.7562 20.8006C31.3458 20.8006 29.788 19.1623 29.788 16.6322V15.9167C29.788 13.3348 31.3458 11.6653 33.7562 11.6653C36.1666 11.6653 37.7244 13.3244 37.7244 15.9167V16.6322Z" fill="#EA207E"></path> <path d="M109.225 15.2531L114.825 9.39447H118.656L113.088 14.942L119.193 23.0715H115.572L111.078 16.9225L109.225 18.7372V23.0715H106.278V4.59351H109.225V15.2531Z" fill="#EA207E"></path> <path d="M102.858 9.08337C103.658 9.08337 104.384 9.27003 104.973 9.63297L104.279 12.2773C103.742 12.0388 103.205 11.8832 102.563 11.8832C100.689 11.8832 99.2682 13.3039 99.2682 15.689V23.0827H96.3208V9.39446H99.2682V11.2921C100.068 9.68482 101.416 9.073 102.858 9.073V9.08337Z" fill="#EA207E"></path> <path d="M73.4483 9.08337C76.6061 9.08337 78.5428 11.1987 78.5428 14.8383V23.0715H75.5956V14.9109C75.5956 12.9096 74.6799 11.6653 72.9747 11.6653C71.0695 11.6653 69.9749 12.9822 69.9749 15.0975V23.0715H67.0277V15.0975C67.0277 12.9822 66.2277 11.6653 64.3752 11.6653C62.6069 11.6653 61.3964 12.9822 61.3964 15.1805V23.0715H58.4492V9.39444H61.3964V11.1054C62.1437 9.97512 63.3752 9.073 65.2593 9.073C67.1329 9.073 68.5539 10.0996 69.196 11.5824C69.9222 10.2344 71.2906 9.073 73.4589 9.073L73.4483 9.08337Z" fill="#EA207E"></path> <path d="M54.9128 9.08337C55.7128 9.08337 56.4391 9.27003 57.0286 9.63297L56.3339 12.2773C55.797 12.0388 55.2602 11.8832 54.6181 11.8832C52.7444 11.8832 51.3233 13.3039 51.3233 15.689V23.0827H48.376V9.39446H51.3233V11.2921C52.1233 9.68482 53.4707 9.073 54.9128 9.073V9.08337Z" fill="#EA207E"></path> <path d="M45.5348 9.39453H42.5874V23.0724H45.5348V9.39453Z" fill="#EA207E"></path> <path d="M137.466 9.39467H140.002V11.9766H137.466V14.7245V19.2558C137.466 20.2617 137.918 20.5727 138.75 20.5727C139.013 20.5727 139.181 20.5416 139.371 20.4898L139.665 22.968C139.286 23.1028 138.865 23.1547 138.35 23.1547C135.887 23.1547 134.518 21.8067 134.518 19.0899V17.659V11.9662H132.087V9.38431H134.518V5.4751H137.466V9.38431V9.39467Z" fill="#EA207E"></path> <path d="M17.683 13.1271L10.315 0.694345C9.76766 -0.228519 8.42037 -0.228519 7.87303 0.694345L0.515569 13.1271C-0.168601 14.2781 -0.168601 15.709 0.515569 16.8704L7.88356 29.3135C8.4309 30.2363 9.77819 30.2363 10.3255 29.3135L17.6935 16.8704C18.3777 15.7194 18.3777 14.2884 17.6935 13.1271H17.683ZM13.9148 16.0616L9.39926 23.5585C9.26243 23.7867 8.9256 23.7867 8.78877 23.5585L4.27324 16.0616C3.87327 15.4083 3.87327 14.5891 4.27324 13.9359L8.78877 6.43891C8.9256 6.21079 9.26243 6.21079 9.39926 6.43891L13.9148 13.9359C14.3148 14.5891 14.3148 15.4083 13.9148 16.0616Z" fill="#EA207E"></path></svg>