<?xml version="1.0" standalone="no"?>
<!DOCTYPE svg PUBLIC "-//W3C//DTD SVG 20010904//EN"
 "http://www.w3.org/TR/2001/REC-SVG-20010904/DTD/svg10.dtd">
<svg version="1.0" xmlns="http://www.w3.org/2000/svg"
 width="422.000000pt" height="426.000000pt" viewBox="0 0 422.000000 426.000000"
 preserveAspectRatio="xMidYMid meet">

<g transform="translate(0.000000,426.000000) scale(0.100000,-0.100000)"
fill="#000000" stroke="none">
<path d="M1076 3504 c-79 -19 -184 -76 -240 -130 -61 -58 -120 -150 -135 -211
-7 -26 -17 -56 -22 -65 -12 -23 -12 -1905 0 -1912 4 -3 11 -24 15 -47 20 -127
145 -273 288 -338 113 -52 136 -53 1173 -49 1015 4 975 2 1090 48 l30 11 -165
159 c-108 104 -170 157 -180 154 -8 -3 -46 -12 -83 -20 -169 -36 -357 58 -435
216 -24 49 -27 66 -27 155 0 88 3 107 27 157 39 84 104 149 190 189 68 32 80
34 174 34 96 0 103 -2 176 -38 170 -84 250 -256 204 -437 l-17 -65 165 -163
164 -163 26 44 c15 25 32 70 38 101 7 31 16 56 20 56 12 0 10 1866 -1 1888 -5
9 -15 40 -21 67 -25 114 -131 244 -250 309 -114 62 -148 66 -590 65 l-395 0
-260 -250 c-227 -219 -260 -254 -257 -277 2 -15 4 -70 5 -122 2 -87 -1 -100
-27 -154 -53 -109 -140 -182 -251 -211 -194 -50 -379 31 -472 207 -25 48 -28
62 -28 158 0 96 3 110 28 158 54 103 142 177 246 208 68 20 206 15 265 -10 36
-15 39 -15 65 5 28 22 291 280 291 286 0 1 -172 3 -382 2 -294 0 -397 -4 -442
-15z m1835 -401 c89 -33 171 -105 214 -189 28 -55 30 -67 30 -164 0 -92 -3
-111 -25 -154 -39 -77 -113 -151 -187 -188 -83 -40 -197 -50 -288 -23 l-58 16
-86 -84 c-47 -46 -219 -212 -381 -368 -162 -156 -295 -286 -295 -289 1 -3 7
-32 14 -65 35 -155 -54 -331 -206 -409 -285 -144 -632 100 -573 404 31 162
160 283 330 311 71 11 171 -1 222 -27 l28 -14 380 366 379 367 -17 31 c-12 23
-16 57 -17 126 0 85 3 101 29 150 41 78 90 136 144 167 119 70 240 82 363 36z"/>
<path d="M2685 2915 c-79 -31 -128 -99 -128 -180 0 -110 82 -185 201 -185 109
0 192 80 192 185 0 48 -25 109 -56 136 -57 50 -145 68 -209 44z"/>
<path d="M1365 1686 c-38 -17 -90 -72 -104 -109 -24 -64 -1 -156 50 -204 83
-76 227 -67 292 18 78 104 42 245 -75 293 -45 19 -122 20 -163 2z"/>
<path d="M1315 3038 c-72 -26 -119 -82 -131 -155 -8 -52 9 -104 49 -150 40
-45 82 -63 149 -63 118 1 193 72 193 185 0 51 -5 69 -28 104 -48 72 -151 107
-232 79z"/>
<path d="M2733 1646 c-116 -37 -172 -148 -128 -253 27 -65 79 -103 157 -118
80 -15 178 44 212 127 19 44 19 60 5 111 -28 101 -146 164 -246 133z"/>
</g>
</svg>
