<svg xmlns="http://www.w3.org/2000/svg" version="1.1" xmlns:xlink="http://www.w3.org/1999/xlink" width="1000" height="1000"><g clip-path="url(#SvgjsClipPath1080)"><rect width="1000" height="1000" fill="#ffffff"></rect><g transform="matrix(21.875,0,0,21.875,150,160.9375)"><svg xmlns="http://www.w3.org/2000/svg" version="1.1" xmlns:xlink="http://www.w3.org/1999/xlink" width="32" height="31"><svg xmlns="http://www.w3.org/2000/svg" version="1.1" xmlns:xlink="http://www.w3.org/1999/xlink" width="32" height="31"><svg xmlns="http://www.w3.org/2000/svg" version="1.1" xmlns:xlink="http://www.w3.org/1999/xlink" width="32" height="31"><svg width="32" height="31" viewBox="0 0 32 31" fill="none" xmlns="http://www.w3.org/2000/svg">
<path d="M26.1395 0H18.0393L12.1216 5.7021C12.7346 7.2279 12.4077 9.02111 11.1326 10.2559C9.40792 11.9154 6.60434 11.9233 4.87152 10.2559C3.14687 8.5964 3.1387 5.89872 4.87152 4.23135C6.29374 2.86285 8.43525 2.61903 10.1109 3.49991L13.7481 0H5.86871C2.62375 0 0 2.52465 0 5.64704V25.1521C0 28.2667 2.62375 30.7992 5.86871 30.7992H26.1395C27.1367 30.7992 28.0685 30.5554 28.894 30.1385L25.2158 26.5993C23.5811 27.3307 21.5785 27.0476 20.2217 25.7499C18.4971 24.0904 18.4971 21.3927 20.2217 19.7253C21.9464 18.0658 24.7499 18.0658 26.4828 19.7253C27.8314 21.023 28.1257 22.9499 27.3573 24.5308L31.1009 28.1408C31.6649 27.2757 32 26.2532 32 25.1521V5.64704C32 2.53252 29.3762 0 26.1313 0H26.1395ZM26.401 11.5851C25.0524 12.8828 23.0498 13.1659 21.4069 12.4345L12.8572 20.6691C13.4702 22.1949 13.1433 23.9881 11.8682 25.2229C10.1436 26.8824 7.33997 26.8903 5.60715 25.2229C3.8825 23.5634 3.87433 20.8657 5.60715 19.1984C7.02937 17.8299 9.17088 17.586 10.8465 18.4669L19.2654 10.3582C18.5052 8.78516 18.7913 6.85824 20.14 5.55266C21.8646 3.89315 24.6682 3.88529 26.401 5.55266C28.1257 7.21217 28.1338 9.90985 26.401 11.5772V11.5851Z" fill="#000000"></path>
<path d="M21.5541 7.2043C20.6877 8.03799 20.6877 9.39863 21.5541 10.2323C22.4205 11.066 23.8346 11.066 24.701 10.2323C25.5674 9.39863 25.5674 8.03799 24.701 7.2043C23.8346 6.37062 22.4205 6.37062 21.5541 7.2043Z" fill="#000000"></path>
<path d="M7.0209 20.8421C6.15449 21.6758 6.15449 23.0364 7.0209 23.8701C7.88731 24.7038 9.30136 24.7038 10.1678 23.8701C11.0342 23.0364 11.0342 21.6758 10.1678 20.8421C9.30136 20.0084 7.88731 20.0084 7.0209 20.8421Z" fill="#000000"></path>
<path d="M8.88338 9.27701C9.9735 8.73329 10.3991 7.44219 9.83408 6.39325C9.26902 5.3443 7.92723 4.93474 6.83711 5.47846C5.74699 6.02218 5.32136 7.31329 5.88642 8.36223C6.45148 9.41117 7.79327 9.82073 8.88338 9.27701Z" fill="#000000"></path>
<path d="M21.9291 21.3613C21.0627 22.195 21.0627 23.5556 21.9291 24.3893C22.7955 25.223 24.2096 25.223 25.076 24.3893C25.9424 23.5556 25.9424 22.195 25.076 21.3613C24.2096 20.5276 22.7955 20.5276 21.9291 21.3613Z" fill="#000000"></path>
</svg><style>@media (prefers-color-scheme: light) { :root { filter: none; } }
@media (prefers-color-scheme: dark) { :root { filter: none; } }
</style></svg><style>@media (prefers-color-scheme: light) { :root { filter: contrast(1) brightness(0.1); } }
@media (prefers-color-scheme: dark) { :root { filter: none; } }
</style></svg></svg></g></g><defs><clipPath id="SvgjsClipPath1080"><rect width="1000" height="1000" x="0" y="0" rx="250" ry="250"></rect></clipPath></defs></svg>